#!OML:ASF F:\VICON\USERDATA\INSTALL\rory3\rory3.ASF
:FULLY-SPECIFIED
:DEGREES
128
root 13.7558 17.8233 -10.1585 1.90584 -46.5798 -1.93874
lowerback 10.3259 2.871 3.62811
upperback 1.27042 4.21744 0.460785
thorax -4.22607 2.01983 -2.12824
lowerneck -19.8851 -5.18792 -10.8782
upperneck 23.2265 -5.80537 7.05188
head 11.3933 -2.75643 3.48911
rclavicle 7.85199e-015 -5.1684e-015
rhumerus -32.5997 -6.77685 -83.9213
rradius 30.1346
rwrist 6.18356
rhand -11.8256 12.2195
rfingers 7.12502
rthumb 14.225 -17.2734
lclavicle 7.85199e-015 -5.1684e-015
lhumerus -41.7035 10.1365 77.96
lradius 31.1592
lwrist -10.9315
lhand -18.1031 24.363
lfingers 7.12502
lthumb 8.17086 54.185
rfemur 5.97569 1.56317 28.6911
rtibia 19.101
rfoot -20.7946 -0.469575
rtoes 3.52308
lfemur -25.8336 -4.25273 -16.5864
ltibia 21.4437
lfoot -14.4156 4.77544
ltoes -13.8035
129
root 13.7088 17.8151 -10.1145 2.03109 -46.628 -1.98502
lowerback 10.3824 2.91386 3.68982
upperback 1.2365 4.28528 0.471081
thorax -4.28516 2.0505 -2.16538
lowerneck -19.8342 -5.21852 -10.8925
upperneck 23.0744 -5.85741 7.11226
head 11.3341 -2.77274 3.50333
rclavicle 7.67806e-014 -3.97569e-015
rhumerus -32.5392 -6.80822 -83.8462
rradius 30.1402
rwrist 6.18973
rhand -12.0268 12.1651
rfingers 7.12502
rthumb 14.0312 -17.3413
lclavicle 7.67806e-014 -3.97569e-015
lhumerus -41.8505 10.4384 77.7914
lradius 30.9587
lwrist -11.2967
lhand -18.1271 24.4433
lfingers 7.12502
lthumb 8.14766 54.2662
rfemur 6.24769 1.64665 28.7622
rtibia 18.833
rfoot -20.7889 -0.670093
rtoes 3.14094
lfemur -26.0481 -4.5314 -16.4977
ltibia 20.3343
lfoot -14.2734 5.33977
ltoes -13.7181
130
root 13.6618 17.8089 -10.0708 2.1421 -46.6144 -1.91843
lowerback 10.3878 2.92109 3.66559
upperback 1.18216 4.29404 0.45788
thorax -4.34531 2.05327 -2.16918
lowerneck -19.8749 -5.23848 -10.8606
upperneck 23.0824 -5.89531 7.12489
head 11.3482 -2.78461 3.4962
rclavicle -9.59136e-014 -6.75868e-015
rhumerus -32.5459 -6.45035 -83.936
rradius 30.3673
rwrist 5.9057
rhand -12.0853 11.8006
rfingers 7.12502
rthumb 13.9748 -17.7097
lclavicle -9.59136e-014 -6.75868e-015
lhumerus -41.9939 10.7023 77.6528
lradius 30.7241
lwrist -11.476
lhand -17.9749 24.5299
lfingers 7.12502
lthumb 8.29457 54.347
rfemur 6.46091 1.46826 28.6811
rtibia 18.5513
rfoot -20.8359 -0.711773
rtoes 2.39729
lfemur -26.395 -4.732 -16.5507
ltibia 19.4426
lfoot -14.1435 5.96292
ltoes -13.9519
131
root 13.6155 17.8009 -10.0258 2.22905 -46.573 -1.89268
lowerback 10.4515 2.90453 3.66847
upperback 1.15313 4.27671 0.470731
thorax -4.41298 2.04266 -2.1603
lowerneck -19.8941 -5.24159 -10.8024
upperneck 23.0099 -5.87996 7.01231
head 11.3172 -2.78475 3.44532
rclavicle -8.72168e-014 -8.34896e-015
rhumerus -32.4863 -6.24133 -83.9426
rradius 30.5047
rwrist 5.71929
rhand -12.0166 11.5948
rfingers 7.12502
rthumb 14.041 -17.9109
lclavicle -8.72168e-014 -8.34896e-015
lhumerus -42.1339 10.9325 77.5626
lradius 30.5329
lwrist -11.5666
lhand -17.6288 24.6263
lfingers 7.12502
lthumb 8.62859 54.43
rfemur 6.78049 1.36118 28.6408
rtibia 18.2047
rfoot -20.8927 -0.674808
rtoes 2.52043
lfemur -26.7614 -4.74414 -16.6569
ltibia 18.7517
lfoot -13.9483 6.47895
ltoes -14.1741
132
root 13.5677 17.7888 -9.97886 2.45552 -46.4717 -2.21808
lowerback 10.6071 2.87566 3.95123
upperback 1.16293 4.28094 0.563072
thorax -4.47552 2.03814 -2.23148
lowerneck -19.8904 -5.27856 -10.9793
upperneck 22.9321 -5.90305 7.13175
head 11.3002 -2.79509 3.51437
rclavicle -6.47541e-014 3.18055e-015
rhumerus -32.3159 -6.45846 -83.7209
rradius 30.3805
rwrist 6.13097
rhand -12.0466 11.6785
rfingers 7.12502
rthumb 14.0121 -17.8292
lclavicle -6.47541e-014 3.18055e-015
lhumerus -42.1425 10.8242 77.703
lradius 30.2601
lwrist -11.251
lhand -17.5857 24.3707
lfingers 7.12502
lthumb 8.67018 54.1727
rfemur 7.2062 1.23409 28.899
rtibia 17.8358
rfoot -20.9153 -0.72077
rtoes 2.49211
lfemur -27.0257 -4.51353 -16.5881
ltibia 18.2154
lfoot -13.7184 6.58333
ltoes -14.8199
133
root 13.5105 17.7821 -9.92968 2.59549 -46.4807 -2.43067
lowerback 10.6522 2.86531 4.06003
upperback 1.21941 4.28193 0.626197
thorax -4.43826 2.03825 -2.22716
lowerneck -20.0478 -5.28489 -10.9285
upperneck 22.9302 -5.89118 7.06866
head 11.3247 -2.78921 3.48253
rclavicle 6.95746e-015 3.06128e-014
rhumerus -32.1578 -6.41573 -83.6465
rradius 30.3762
rwrist 6.61906
rhand -12.2792 11.159
rfingers 7.12502
rthumb 13.7879 -18.3641
lclavicle 6.95746e-015 3.06128e-014
lhumerus -42.1457 10.9785 77.6653
lradius 29.9872
lwrist -11.1931
lhand -17.7057 24.2878
lfingers 7.12502
lthumb 8.55437 54.0945
rfemur 7.64465 1.25165 29.0895
rtibia 17.4877
rfoot -20.9135 -0.83102
rtoes 2.33977
lfemur -27.2258 -4.01278 -16.669
ltibia 17.7866
lfoot -13.6746 6.46791
ltoes -15.5473
134
root 13.4566 17.7742 -9.88184 2.69004 -46.5095 -2.43486
lowerback 10.6444 2.8586 4.05098
upperback 1.25092 4.26875 0.596459
thorax -4.40005 2.03301 -2.24959
lowerneck -20.2884 -5.25715 -10.6372
upperneck 22.937 -5.87392 6.90763
head 11.3556 -2.77002 3.37419
rclavicle -7.70291e-014 -2.38542e-015
rhumerus -32.0421 -6.08125 -83.8589
rradius 30.5711
rwrist 6.30433
rhand -12.5981 10.6323
rfingers 7.12502
rthumb 13.4805 -18.9114
lclavicle -7.70291e-014 -2.38542e-015
lhumerus -42.1562 11.362 77.3901
lradius 29.7868
lwrist -11.5676
lhand -17.6198 24.6685
lfingers 7.12502
lthumb 8.63726 54.4718
rfemur 7.99295 1.19715 29.0785
rtibia 17.0951
rfoot -20.8866 -0.750251
rtoes 2.35569
lfemur -27.568 -3.56122 -16.8961
ltibia 17.4929
lfoot -13.6825 6.31702
ltoes -14.9948
135
root 13.4045 17.7633 -9.834 2.66346 -46.4752 -2.36571
lowerback 10.7666 2.84523 3.92928
upperback 1.26076 4.24434 0.648495
thorax -4.47211 2.02126 -2.13184
lowerneck -20.3878 -5.22663 -10.666
upperneck 22.9361 -5.8284 6.97738
head 11.3729 -2.74117 3.41179
rclavicle 4.64162e-014 -1.82882e-014
rhumerus -31.9646 -5.50376 -84.0365
rradius 30.7493
rwrist 5.31908
rhand -12.898 10.7392
rfingers 7.12502
rthumb 13.1916 -18.8235
lclavicle 4.64162e-014 -1.82882e-014
lhumerus -42.2914 11.6535 77.345
lradius 29.6637
lwrist -11.7939
lhand -17.712 24.7971
lfingers 7.12502
lthumb 8.54831 54.6041
rfemur 8.41775 1.1123 29.0449
rtibia 16.6877
rfoot -20.8238 -0.846512
rtoes 1.49187
lfemur -27.8517 -3.2012 -17.1653
ltibia 17.2542
lfoot -13.594 6.12839
ltoes -14.4378
136
root 13.3468 17.7509 -9.78509 2.76398 -46.4424 -2.55018
lowerback 10.8933 2.86362 3.92108
upperback 1.29702 4.27754 0.776345
thorax -4.51306 2.03728 -2.00537
lowerneck -20.4051 -5.23039 -10.7149
upperneck 22.8743 -5.82731 7.0349
head 11.3565 -2.73661 3.44049
rclavicle -8.99998e-014 -5.1684e-015
rhumerus -31.883 -5.2524 -84.0216
rradius 30.8297
rwrist 4.86351
rhand -12.9793 11.0554
rfingers 7.12502
rthumb 13.1131 -18.5123
lclavicle -8.99998e-014 -5.1684e-015
lhumerus -42.323 11.805 77.3931
lradius 29.4852
lwrist -11.8886
lhand -17.4093 24.7079
lfingers 7.12502
lthumb 8.84037 54.5027
rfemur 8.91528 1.21294 29.2734
rtibia 16.2822
rfoot -20.7397 -1.07935
rtoes 0.820827
lfemur -28.1016 -2.96525 -17.1636
ltibia 17.0859
lfoot -13.5032 5.83713
ltoes -14.8543
137
root 13.2914 17.7391 -9.73398 2.88223 -46.4224 -2.78454
lowerback 11.0773 2.87552 4.04312
upperback 1.31092 4.31893 0.852697
thorax -4.5952 2.05331 -2.0103
lowerneck -20.3607 -5.24085 -10.5729
upperneck 22.7509 -5.83645 6.855
head 11.2915 -2.74961 3.34626
rclavicle -6.08778e-014 -5.96354e-015
rhumerus -31.8104 -5.42193 -83.9033
rradius 30.7788
rwrist 5.05214
rhand -12.6324 11.4582
rfingers 7.12502
rthumb 13.4475 -18.0877
lclavicle -6.08778e-014 -5.96354e-015
lhumerus -42.3441 11.853 77.3858
lradius 29.2975
lwrist -11.8344
lhand -16.9683 24.7203
lfingers 7.12502
lthumb 9.26589 54.4967
rfemur 9.45824 1.33829 29.5301
rtibia 15.8533
rfoot -20.5225 -1.35124
rtoes -0.259236
lfemur -28.2852 -3.10911 -16.9898
ltibia 16.9613
lfoot -13.3689 5.84023
ltoes -15.0425
138
root 13.2357 17.7332 -9.6766 2.98659 -46.4923 -2.94772
lowerback 11.2038 2.91621 4.19003
upperback 1.32145 4.39714 0.880403
thorax -4.64085 2.08776 -2.0814
lowerneck -20.3569 -5.30911 -10.6663
upperneck 22.7174 -5.92916 6.95799
head 11.2946 -2.78658 3.38433
rclavicle -6.54995e-014 0
rhumerus -31.7114 -5.70201 -83.7697
rradius 30.6568
rwrist 5.32168
rhand -12.5636 11.7601
rfingers 7.12502
rthumb 13.5139 -17.7815
lclavicle -6.54995e-014 0
lhumerus -42.3523 11.883 77.415
lradius 29.0275
lwrist -11.858
lhand -17.2142 24.6757
lfingers 7.12502
lthumb 9.02866 54.4624
rfemur 9.9779 1.37333 29.6418
rtibia 15.4093
rfoot -20.3027 -1.35463
rtoes -0.474407
lfemur -28.3922 -3.22017 -16.895
ltibia 16.8452
lfoot -13.215 6.04095
ltoes -15.976
139
root 13.1769 17.7236 -9.61456 2.9752 -46.6529 -2.97838
lowerback 11.2573 2.97073 4.26068
upperback 1.40177 4.47604 0.874955
thorax -4.57529 2.12754 -2.13752
lowerneck -20.3609 -5.34802 -10.8003
upperneck 22.623 -5.98639 7.14956
head 11.2772 -2.79932 3.46717
rclavicle -7.60351e-015 1.47101e-014
rhumerus -31.5098 -5.83379 -83.7323
rradius 30.5787
rwrist 5.31874
rhand -12.5791 11.6076
rfingers 7.12502
rthumb 13.4989 -17.9349
lclavicle -7.60351e-015 1.47101e-014
lhumerus -42.2653 12.0429 77.4137
lradius 28.7463
lwrist -12.096
lhand -17.3314 24.4675
lfingers 7.12502
lthumb 8.91561 54.2592
rfemur 10.5013 1.5244 29.6507
rtibia 15.0498
rfoot -20.2502 -1.33623
rtoes -0.137473
lfemur -28.4363 -3.55002 -16.7637
ltibia 16.651
lfoot -13.1027 6.25525
ltoes -16.1434
140
root 13.1189 17.7079 -9.55121 3.02872 -46.766 -3.11534
lowerback 11.3318 3.00951 4.44329
upperback 1.49145 4.54844 0.876366
thorax -4.50357 2.16245 -2.24865
lowerneck -20.423 -5.38414 -10.7922
upperneck 22.5541 -6.03813 7.18625
head 11.2696 -2.81508 3.46909
rclavicle 9.59136e-015 -3.97569e-015
rhumerus -31.2885 -6.06957 -83.6416
rradius 30.4641
rwrist 5.62057
rhand -12.672 11.3429
rfingers 7.12502
rthumb 13.4094 -18.2055
lclavicle 9.59136e-015 -3.97569e-015
lhumerus -42.1232 12.2367 77.3744
lradius 28.4993
lwrist -12.2151
lhand -17.4518 24.5477
lfingers 7.12502
lthumb 8.79934 54.3443
rfemur 11.0104 1.46035 29.6959
rtibia 14.779
rfoot -20.268 -1.21447
rtoes 0.0169024
lfemur -28.4979 -4.06982 -16.4323
ltibia 16.3834
lfoot -13.2032 6.08649
ltoes -14.1389
141
root 13.0627 17.6946 -9.48578 3.04297 -46.8248 -3.06152
lowerback 11.3767 3.03714 4.49611
upperback 1.50425 4.59163 0.847339
thorax -4.50551 2.18262 -2.31652
lowerneck -20.4502 -5.4034 -10.6672
upperneck 22.4522 -6.06906 7.08606
head 11.2317 -2.82849 3.40367
rclavicle 8.18496e-014 3.57812e-015
rhumerus -31.1932 -6.34896 -83.5186
rradius 30.3978
rwrist 6.13211
rhand -13.2082 10.536
rfingers 7.12502
rthumb 12.8925 -19.0457
lclavicle 8.18496e-014 3.57812e-015
lhumerus -42.1599 12.4186 77.3217
lradius 28.438
lwrist -12.3486
lhand -17.7367 24.4886
lfingers 7.12502
lthumb 8.52446 54.2966
rfemur 11.3454 1.2672 29.5622
rtibia 14.6485
rfoot -20.214 -1.05006
rtoes -0.511263
lfemur -28.5857 -4.33139 -16.3901
ltibia 15.9842
lfoot -13.2271 5.75845
ltoes -13.7681
